<svg width="62" height="62" viewBox="0 0 62 62" fill="none" xmlns="http://www.w3.org/2000/svg" xmlns:xlink="http://www.w3.org/1999/xlink">
<path d="M42.571,0.4L19.429,0.4L19.429,7.6L42.571,7.6L42.571,0.4ZM19.429,0.4C8.919,0.4 0.4,8.919 0.4,19.429L7.6,19.429C7.6,12.896 12.896,7.6 19.429,7.6L19.429,0.4ZM0.4,19.429L0.4,42.571L7.6,42.571L7.6,19.429L0.4,19.429ZM0.4,42.571C0.4,53.08 8.919,61.6 19.429,61.6L19.429,54.4C12.896,54.4 7.6,49.104 7.6,42.571L0.4,42.571ZM19.429,61.6L42.571,61.6L42.571,54.4L19.429,54.4L19.429,61.6ZM42.571,61.6C53.08,61.6 61.6,53.08 61.6,42.571L54.4,42.571C54.4,49.104 49.104,54.4 42.571,54.4L42.571,61.6ZM61.6,42.571L61.6,19.429L54.4,19.429L54.4,42.571L61.6,42.571ZM61.6,19.429C61.6,8.919 53.08,0.4 42.571,0.4L42.571,7.6C49.104,7.6 54.4,12.896 54.4,19.429L61.6,19.429Z" fill="#000000"/>
<path d="M31,38.4C26.913,38.4 23.6,35.087 23.6,31L16.4,31C16.4,39.064 22.936,45.6 31,45.6L31,38.4ZM23.6,31C23.6,26.913 26.913,23.6 31,23.6L31,16.4C22.936,16.4 16.4,22.936 16.4,31L23.6,31ZM31,23.6C35.087,23.6 38.4,26.913 38.4,31L45.6,31C45.6,22.936 39.064,16.4 31,16.4L31,23.6ZM38.4,31C38.4,32.962 37.62,34.845 36.233,36.233L41.324,41.324C44.062,38.586 45.6,34.872 45.6,31L38.4,31ZM36.233,36.233C34.845,37.62 32.962,38.4 31,38.4L31,45.6C34.872,45.6 38.586,44.062 41.324,41.324L36.233,36.233Z" fill="#000000"/>
<path d="M50,16C50,13.791 48.209,12 46,12C43.791,12 42,13.791 42,16C42,18.209 43.791,20 46,20C48.209,20 50,18.209 50,16Z" transform="rotate(-180 46 16)" fill="#000000"/>
<path d="M46,16.4C45.779,16.4 45.6,16.221 45.6,16L50.4,16C50.4,13.57 48.43,11.6 46,11.6L46,16.4ZM45.6,16C45.6,15.779 45.779,15.6 46,15.6L46,20.4C48.43,20.4 50.4,18.43 50.4,16L45.6,16ZM46,15.6C46.221,15.6 46.4,15.779 46.4,16L41.6,16C41.6,18.43 43.57,20.4 46,20.4L46,15.6ZM46.4,16C46.4,16.221 46.221,16.4 46,16.4L46,11.6C43.57,11.6 41.6,13.57 41.6,16L46.4,16Z" transform="rotate(-180 46 16)" fill="#000000"/>
</svg>
