<svg width="50" height="50" viewBox="0 0 50 50" fill="none" xmlns="http://www.w3.org/2000/svg" xmlns:xlink="http://www.w3.org/1999/xlink">
<path d="M3.405,14.149C5.416,10.145 8.5,6.779 12.314,4.428C16.127,2.076 20.52,0.832 25,0.833C31.513,0.833 36.984,3.228 41.168,7.129L34.239,14.06C31.733,11.665 28.548,10.444 25,10.444C18.705,10.444 13.376,14.698 11.479,20.408C10.996,21.858 10.72,23.405 10.72,25C10.72,26.595 10.996,28.142 11.479,29.592C13.378,35.305 18.705,39.555 25,39.555C28.25,39.555 31.018,38.698 33.183,37.248C34.438,36.421 35.513,35.349 36.342,34.095C37.171,32.841 37.737,31.433 38.007,29.954L25,29.954L25,20.606L47.76,20.606C48.045,22.187 48.2,23.835 48.2,25.548C48.2,32.91 45.566,39.106 40.994,43.311C36.996,47.004 31.525,49.167 25,49.167C21.826,49.168 18.683,48.544 15.75,47.33C12.818,46.116 10.153,44.335 7.909,42.091C5.665,39.847 3.885,37.182 2.67,34.25C1.456,31.317 0.832,28.174 0.833,25C0.833,21.099 1.766,17.412 3.405,14.149Z" fill="#1E1E1E"/>
</svg>
