<svg width="52" height="62" viewBox="0 0 52 62" fill="none" xmlns="http://www.w3.org/2000/svg" xmlns:xlink="http://www.w3.org/1999/xlink">
<path d="M26,0C11.641,0 0,10.41 0,23.25C0,28.306 1.854,32.945 4.935,36.745C4.99,36.836 4.999,36.937 5.061,37.025L22.395,60.275C23.199,61.353 24.553,62 26,62C27.447,62 28.802,61.353 29.605,60.275L46.939,37.025C47.003,36.937 47.01,36.836 47.065,36.745C50.146,32.945 52,28.306 52,23.25C52,10.41 40.359,0 26,0ZM26,31C21.214,31 17.333,27.53 17.333,23.25C17.333,18.97 21.214,15.5 26,15.5C30.786,15.5 34.667,18.97 34.667,23.25C34.667,27.53 30.786,31 26,31Z" fill="#231F20"/>
</svg>
